<svg xmlns="http://www.w3.org/2000/svg" viewBox="0 0 32 32"><path d="M23.5 5A3.5 3.5 0 0 0 20 8.5v1.684A2.966 2.966 0 0 0 19 10h-1a2.981 2.981 0 0 0-2 .78 2.981 2.981 0 0 0-2-.78h-1a2.966 2.966 0 0 0-1 .184V4.5a3.5 3.5 0 0 0-7 0V20a11.09 11.09 0 0 0 .22 2.2A11 11 0 0 0 27 20V8.5A3.5 3.5 0 0 0 23.5 5ZM18 12h1a1 1 0 0 1 1 1v5.5a1.5 1.5 0 0 1-3 0V13a1 1 0 0 1 1-1ZM7 20v-3h6a1.991 1.991 0 0 1 1.343.524A1.949 1.949 0 0 1 15 19a2 2 0 0 1-2 2H7.055A9.28 9.28 0 0 1 7 20Zm6-8h1a1 1 0 0 1 1 1v2.538a3.9 3.9 0 0 0-.53-.253c-.045-.019-.093-.031-.139-.048a3.874 3.874 0 0 0-.5-.141c-.06-.013-.119-.026-.179-.036A4.068 4.068 0 0 0 13 15h-1v-2a1 1 0 0 1 1-1ZM7 4.5a1.5 1.5 0 0 1 3 0V15H7ZM25 20a9 9 0 0 1-17.487 3H13a3.987 3.987 0 0 0 .721-.073c.05-.009.1-.017.149-.028a4.079 4.079 0 0 0 .652-.2c.035-.015.068-.033.1-.048a3.962 3.962 0 0 0 .544-.3c.031-.02.064-.037.094-.058a3.986 3.986 0 0 0 .516-.426l.1-.1a3.932 3.932 0 0 0 .431-.522l.006-.007c.042.034.092.06.136.092.065.047.131.091.2.134a3.4 3.4 0 0 0 .352.191c.072.034.143.07.218.1a3.387 3.387 0 0 0 .415.129c.068.018.134.041.2.054A3.479 3.479 0 0 0 22 18.5v-10a1.5 1.5 0 0 1 3 0Z"/></svg>